<svg width="24" height="24" viewBox="0 0 24 24" fill="none" xmlns="http://www.w3.org/2000/svg">
<path d="M11.9998 20.1598C7.48784 20.1598 3.83984 16.5118 3.83984 11.9998C3.83984 7.48784 7.48784 3.83984 11.9998 3.83984C16.5118 3.83984 20.1598 7.48784 20.1598 11.9998C20.1598 16.5118 16.5118 20.1598 11.9998 20.1598ZM11.9998 4.79984C8.01584 4.79984 4.79984 8.01584 4.79984 11.9998C4.79984 15.9838 8.01584 19.1998 11.9998 19.1998C15.9838 19.1998 19.1998 15.9838 19.1998 11.9998C19.1998 8.01584 15.9838 4.79984 11.9998 4.79984Z" fill="#58FE3D"/>
<path d="M11.0398 15.5522L6.86377 11.3762L7.53577 10.7042L11.0398 14.2082L16.4638 8.78418L17.1358 9.45618L11.0398 15.5522Z" fill="#58FE3D"/>
</svg>
